<?xml version="1.0" encoding="iso-8859-1"?>
<!-- Generator: Adobe Illustrator 19.0.0, SVG Export Plug-In . SVG Version: 6.00 Build 0)  -->
<svg version="1.1" id="Layer_1" xmlns="http://www.w3.org/2000/svg" xmlns:xlink="http://www.w3.org/1999/xlink" x="0px" y="0px"
	 viewBox="0 0 512 512" style="enable-background:new 0 0 512 512;" xml:space="preserve">
<g>
	<path style="fill:#365E94;" d="M77.703,413.082l-73.31,73.312c-5.858,5.857-5.858,15.355,0,21.213C7.322,510.535,11.16,512,15,512
		s7.678-1.465,10.606-4.394l73.311-73.312c5.858-5.857,5.858-15.355,0-21.213C93.059,407.225,83.561,407.225,77.703,413.082z"/>
	<path style="fill:#365E94;" d="M507.605,4.394c-5.857-5.858-15.355-5.858-21.213,0l-73.312,73.312
		c-5.858,5.858-5.858,15.355,0,21.213c2.929,2.929,6.768,4.394,10.606,4.394s7.678-1.464,10.606-4.394l73.312-73.312
		C513.465,19.749,513.465,10.252,507.605,4.394z"/>
</g>
<g>
	<path style="fill:#FFBD52;" d="M232.19,214.551c-5.533-5.534-14.506-5.534-20.039,0l-41.892,41.893
		c-5.534,5.533-5.534,14.506,0,20.039c2.767,2.767,6.393,4.15,10.019,4.15c3.626,0,7.253-1.384,10.019-4.15l41.892-41.893
		C237.725,229.056,237.725,220.084,232.19,214.551z"/>
	<path style="fill:#FFBD52;" d="M297.448,279.809c-5.533-5.533-14.506-5.533-20.039,0l-41.892,41.892
		c-5.534,5.533-5.534,14.506,0,20.039c2.767,2.767,6.393,4.15,10.019,4.15c3.626,0,7.253-1.384,10.019-4.15l41.892-41.892
		C302.982,294.315,302.982,285.342,297.448,279.809z"/>
</g>
<path style="fill:#9EACBA;" d="M154.794,220.94c-5.533-5.534-14.506-5.534-20.039,0l-56.36,56.36
	c-41.894,41.893-41.894,110.059,0,151.952l4.352,4.352c20.947,20.947,48.461,31.42,75.976,31.42s55.03-10.473,75.976-31.42
	l56.36-56.36c5.534-5.533,5.534-14.506,0-20.039L154.794,220.94z"/>
<path style="fill:#BDCFDF;" d="M154.794,220.94c-5.533-5.534-14.506-5.534-20.039,0l-56.36,56.36
	c-41.894,41.893-41.894,110.059,0,151.952l2.176,2.176l142.355-142.355L154.794,220.94z"/>
<path style="fill:#9EACBA;" d="M433.604,82.748l-4.352-4.352c-20.293-20.294-47.276-31.471-75.976-31.471
	s-55.682,11.176-75.976,31.471l-56.36,56.36c-5.534,5.534-5.534,14.505,0,20.039L357.206,291.06c2.657,2.658,6.261,4.15,10.019,4.15
	s7.363-1.493,10.019-4.15l56.36-56.36c20.294-20.294,31.47-47.276,31.47-75.976C465.075,130.024,453.898,103.042,433.604,82.748z"/>
<path style="fill:#BDCFDF;" d="M431.428,80.572l-2.176-2.176c-20.293-20.294-47.276-31.471-75.976-31.471
	s-55.682,11.176-75.976,31.471l-56.36,56.36c-5.534,5.534-5.534,14.505,0,20.039l68.133,68.132L431.428,80.572z"/>
<g>
	<path style="fill:#EFF4F4;" d="M370.723,200.067l-58.791-58.791c-3.69-3.689-9.67-3.689-13.36,0c-3.689,3.689-3.689,9.671,0,13.36
		l58.791,58.791c1.845,1.845,4.262,2.767,6.68,2.767s4.835-0.922,6.68-2.767C374.411,209.738,374.411,203.756,370.723,200.067z"/>
	<path style="fill:#EFF4F4;" d="M156.018,297.189c-3.69-3.688-9.67-3.688-13.36,0c-3.689,3.689-3.689,9.671,0,13.36l58.792,58.792
		c1.845,1.844,4.262,2.767,6.68,2.767s4.835-0.922,6.68-2.767c3.689-3.689,3.689-9.671,0-13.36L156.018,297.189z"/>
</g>
<g>
</g>
<g>
</g>
<g>
</g>
<g>
</g>
<g>
</g>
<g>
</g>
<g>
</g>
<g>
</g>
<g>
</g>
<g>
</g>
<g>
</g>
<g>
</g>
<g>
</g>
<g>
</g>
<g>
</g>
</svg>
